<?xml version="1.0" standalone="no"?><!DOCTYPE svg PUBLIC "-//W3C//DTD SVG 1.1//EN" "http://www.w3.org/Graphics/SVG/1.1/DTD/svg11.dtd"><svg t="1647584797847" class="icon" viewBox="0 0 1024 1024" version="1.1" xmlns="http://www.w3.org/2000/svg" xmlns:xlink="http://www.w3.org/1999/xlink"><defs><style type="text/css"></style></defs><path d="M512 1024C229.7 1024 0 794.3 0 512S229.7 0 512 0s512 229.7 512 512-229.7 512-512 512z m0-952.6C269.1 71.4 71.4 269 71.4 512S269 952.6 512 952.6 952.6 755 952.6 512 754.9 71.4 512 71.4z" fill="#27D0D8" p-id="8049"></path><path d="M440.6 753L201 513.4c-14-13.9-14-36.6 0-50.5 14-14 36.6-14 50.5 0L440.6 652l332-332c14-14 36.6-14 50.5 0 14 13.9 14 36.6 0 50.5L440.6 753z" fill="#27D0D8" p-id="8050"></path></svg>