<?xml version="1.0" standalone="no"?><!DOCTYPE svg PUBLIC "-//W3C//DTD SVG 1.1//EN" "http://www.w3.org/Graphics/SVG/1.1/DTD/svg11.dtd"><svg t="1647584928333" class="icon" viewBox="0 0 1024 1024" version="1.1" xmlns="http://www.w3.org/2000/svg" p-id="12378" xmlns:xlink="http://www.w3.org/1999/xlink"><defs><style type="text/css"></style></defs><path d="M536.953154 464.455014m-448.014129 0a448.014129 448.014129 0 1 0 896.028258 0 448.014129 448.014129 0 1 0-896.028258 0Z" fill="#FFE585" p-id="12379"></path><path d="M547.508202 24.443486c-4.200646 0-8.421844 0.078094-12.593718 0.193181 223.698798 6.374953 403.064748 189.699047 403.064748 414.939177 0 229.268148-185.8601 415.132358-415.132358 415.132358-229.255817 0-415.132358-185.86421-415.132358-415.132358 0-36.104184 4.619889-71.143822 13.284236-104.5517-13.958312 43.305292-21.504678 89.483629-21.504679 137.433471 0 247.427106 200.599354 448.014129 448.014129 448.014129 247.431216 0 448.014129-200.587023 448.014129-448.014129 0-247.431216-200.582913-448.014129-448.014129-448.014129z" fill="#FF9900" opacity=".24" p-id="12380"></path><path d="M437.757071 1024h197.290626a16.440885 16.440885 0 0 0 0-32.881771h-197.290626a16.440885 16.440885 0 0 0 0 32.881771z" fill="#6E6E96" opacity=".29" p-id="12381"></path><path d="M708.480912 1024h57.543099a16.440885 16.440885 0 0 0 0-32.881771h-57.543099a16.440885 16.440885 0 0 0 0 32.881771zM359.112096 991.118229h-45.212435a16.440885 16.440885 0 0 0 0 32.881771h45.212435a16.440885 16.440885 0 0 0 0-32.881771z" fill="#6E6E96" opacity=".17" p-id="12382"></path><path d="M125.931017 487.061232c0-234.948474 190.459438-425.407911 425.407912-425.407912 229.851799 0 417.092934 182.300648 425.107865 410.187762 0.18085-5.182989 0.300046-10.378309 0.300046-15.60651 0-247.427106-200.599354-448.014129-448.014129-448.014129-247.431216 0-448.014129 200.587023-448.014129 448.014129 0 205.954972 138.983025 379.435085 328.308042 431.819856-164.955514-58.558324-283.095607-215.955141-283.095607-400.993196z" fill="#FFEFB5" p-id="12383"></path><path d="M244.531455 452.979276c-4.151324 144.252329 45.985157 270.925241 166.768122 304.933213 120.778855 34.007972 274.945038-35.121842 346.688951-160.331515L244.531455 452.979276z" fill="#C7A17B" p-id="12384"></path><path d="M228.09468 452.506601c-4.841841 168.264242 61.982138 288.35258 178.749417 321.234351 129.956979 36.593301 290.465234-37.189283 365.406899-167.984748a16.449106 16.449106 0 0 0-9.815208-23.999582l-513.448853-144.601698a16.436775 16.436775 0 0 0-20.892255 15.351677z m515.62727 136.903253c-66.66368 116.348036-213.789054 184.836655-327.962783 152.678283-146.019724-41.114544-156.89537-215.544119-154.790937-288.636185a16.453216 16.453216 0 0 1-20.892255 15.351677l513.457073 144.605808a16.444996 16.444996 0 0 1-9.811098-23.999583z" fill="#6E6E96" p-id="12385"></path><path d="M313.065286 97.954796C381.340173 55.385233 460.182439 32.881771 541.063375 32.881771c115.275268 0 223.649475 44.891838 305.163386 126.405748 81.51802 81.51391 126.409858 189.892227 126.409858 305.167495 0 237.969486-193.607867 431.573243-431.573244 431.573244-237.969486 0-431.573243-193.603757-431.573243-431.573244 0-51.965529 9.132912-102.767865 27.139792-151.005422a16.440885 16.440885 0 0 0-30.80611-11.49629C86.44001 353.877729 76.608361 408.551894 76.608361 464.455014c0 256.107893 208.347121 464.455014 464.455014 464.455015 256.103783 0 464.455014-208.347121 464.455015-464.455015 0-124.058811-48.315652-240.694563-136.044217-328.419017C781.753828 48.311542 665.122187 0 541.063375 0 454.025328 0 369.165697 24.225645 295.666719 70.054613a16.440885 16.440885 0 0 0 17.398567 27.900183z" fill="#6E6E96" p-id="12386"></path><path d="M451.727714 273.078997m-36.991992 0a36.991992 36.991992 0 1 0 73.983984 0 36.991992 36.991992 0 1 0-73.983984 0Z" fill="#6E6E96" p-id="12387"></path><path d="M711.016919 341.049728m-36.991993 0a36.991992 36.991992 0 1 0 73.983985 0 36.991992 36.991992 0 1 0-73.983985 0Z" fill="#6E6E96" p-id="12388"></path><path d="M219.37279 277.008369c9.342533-28.442732 38.393578-63.326181 64.682553-77.646192l0.098646-0.061653c26.420503-14.274799 26.420503-37.579754 0-51.821671l-0.098646-0.086315C257.762257 133.13829 227.190431 101.0128 216.117495 76.039095c-11.052385-25.014807-29.174351-25.014807-40.255509 0-11.035944 25.006587-41.636542 57.115636-68.052935 71.349333l-0.123306 0.098645c-26.342409 14.254248-26.342409 37.542762 0 51.829892l0.123306 0.049322c26.416393 14.258358 55.393453 49.19524 64.662003 77.637972l6.658558 20.123644c9.301431 28.467393 24.32018 28.467393 33.679154 0l6.564024-20.119534z" fill="#CFD3FF" p-id="12389"></path><path d="M234.991631 282.137925c8.101246-24.648998 34.16827-55.944223 56.930676-68.33654l0.300046-0.164409 0.291826-0.17674-0.542549 0.304157c18.080864-9.765886 28.446842-24.492809 28.438621-40.403476-0.00411-15.902446-10.374199-30.608819-28.450952-40.358264l3.058005 2.129095-1.393365-1.224846a48.891083 48.891083 0 0 0-1.730403-0.974123c-23.235081-12.593718-51.048949-41.702306-60.744962-63.560463-10.970181-24.821627-26.724659-28.533157-35.138282-28.537267s-24.172212 3.699199-35.183495 28.541377c-9.65902 21.882819-37.50577 50.970855-60.818946 63.535802l-1.331712 0.719289-1.183743 0.953571 2.371597-1.561884c-18.023321 9.753555-28.360527 24.455817-28.368747 40.341823-0.00822 15.894226 10.328986 30.617039 28.352307 40.399366l0.92891 0.501447 0.982342 0.37814-1.755064-0.817934c22.750075 12.277231 48.784217 43.539575 56.848472 68.266667l6.679109 20.193517c8.799984 26.938391 22.47469 32.618717 32.400875 32.626938s23.625552-5.647444 32.507741-32.655709l6.551693-20.119534z m-37.793485 9.860421c-2.947029 8.956172-5.478925 11.278447-5.507697 11.298999 1.878371-1.66464 6.666779-1.656419 8.54104 0.00822-0.028772-0.020551-2.548337-2.338716-5.466594-11.278447l-6.67911-20.185297c-10.604371-32.520071-42.446256-70.73691-72.471423-86.939403l-0.908359-0.493226-0.965902-0.37403 1.783836 0.834375c-7.706665-4.180095-11.155141-8.779433-11.155141-11.479849 0-2.696305 3.444366-7.279202 11.1387-11.438746l1.323491-0.715178 1.171413-0.945351-2.396259 1.574215c29.692239-16.001092 62.76308-50.781785 75.291035-79.187525 3.34983-7.562807 6.198214-9.145243 6.226986-9.157573a3.312838 3.312838 0 0 1-2.268843 0c0.028772 0.012331 2.868935 1.594766 6.218765 9.169903 12.585498 28.372858 45.590575 63.13711 75.143067 79.158754l-3.021012-2.112654 1.409806 1.237177c0.094535 0.086315 1.750954 0.978233 1.750954 0.978232 7.718996 4.159544 11.175692 8.738331 11.175692 11.426416 0 2.696305-3.456696 7.283312-11.188023 11.459297l-0.324707 0.172629-0.320598 0.18907 0.497337-0.279495c-29.963514 16.317579-61.780737 54.509756-72.442651 86.951733l-6.555803 20.127754z" fill="#6E6E96" p-id="12390"></path><path d="M260.791491 594.53119s251.730508-113.355795 386.081313 118.867602c0 0 111.115724-89.820668 111.115724-115.809597L244.531455 452.979276s-29.030494 96.269605 16.260036 141.551914z" fill="#6E6E96" opacity=".25" p-id="12391"></path></svg>