<?xml version="1.0" standalone="no"?><!DOCTYPE svg PUBLIC "-//W3C//DTD SVG 1.1//EN" "http://www.w3.org/Graphics/SVG/1.1/DTD/svg11.dtd"><svg t="1647559421606" class="icon" viewBox="0 0 1024 1024" version="1.1" xmlns="http://www.w3.org/2000/svg" p-id="1139" xmlns:xlink="http://www.w3.org/1999/xlink"><defs><style type="text/css"></style></defs><path d="M640 224m-48 0a48 48 0 1 0 96 0 48 48 0 1 0-96 0Z" fill="#E0EBFE" p-id="1140"></path><path d="M480 224m-48 0a48 48 0 1 0 96 0 48 48 0 1 0-96 0Z" fill="#E0EBFE" p-id="1141"></path><path d="M320 288m-48 0a48 48 0 1 0 96 0 48 48 0 1 0-96 0Z" fill="#E0EBFE" p-id="1142"></path><path d="M256 448m-48 0a48 48 0 1 0 96 0 48 48 0 1 0-96 0Z" fill="#E0EBFE" p-id="1143"></path><path d="M288 608m-48 0a48 48 0 1 0 96 0 48 48 0 1 0-96 0Z" fill="#E0EBFE" p-id="1144"></path><path d="M416 736m-48 0a48 48 0 1 0 96 0 48 48 0 1 0-96 0Z" fill="#E0EBFE" p-id="1145"></path><path d="M859.936 553.056c-54.272-4.064-75.84 30.144-90.304 52.16-8.704 13.28-14.464 21.568-23.072 25.088-30.112 12.416-75.136-15.616-80.512-46.848-6.496-37.984 28.8-77.12 62.976-114.944l6.784-7.552c41.984-46.784 68.672-88.32 84.032-130.72 20.64-57.088 19.328-114.912-3.744-162.816-33.344-69.216-114.752-118.432-217.76-131.648A465.12 465.12 0 0 0 539.136 32C365.728 32 196.224 127.232 117.376 268.992c-87.552 157.312-65.6 366.4 54.624 520.288C269.76 914.304 423.52 992 573.44 992l6.304-0.032c170.624-2.4 326.368-108.672 370.304-252.768 12.672-41.664 13.248-78.848 1.664-110.464-15.808-43.104-51.808-72.8-91.744-75.68z m28.832 167.52c-35.456 116.256-168.704 205.408-309.984 207.36L573.44 928c-130.624 0-265.12-68.256-350.944-178.144-104.608-133.856-124.384-314.624-49.152-449.76C241.216 178.016 388.224 96 539.136 96c17.152 0 34.304 1.088 51.04 3.232 81.472 10.464 144.384 46.336 168.288 95.968 15.296 31.776 15.712 73.056 1.184 113.28-12.48 34.4-35.2 69.28-71.488 109.76l-6.656 7.36c-40.224 44.576-90.304 100.064-78.528 168.64 9.6 56 67.552 103.328 126.592 103.328 14.304 0 28.16-2.688 41.152-8 27.456-11.2 41.28-32.256 52.416-49.216 12.736-19.424 16.64-23.584 28.704-23.584l3.52 0.128c16.896 1.216 30.368 17.888 36.224 33.856 6.688 18.24 5.76 41.76-2.816 69.824z" fill="#5465CF" p-id="1146"></path><path d="M704 224c0-35.296-28.704-64-64-64s-64 28.704-64 64 28.704 64 64 64 64-28.704 64-64z m-96 0c0-17.632 14.368-32 32-32s32 14.368 32 32-14.368 32-32 32-32-14.368-32-32zM480 160c-35.296 0-64 28.704-64 64s28.704 64 64 64 64-28.704 64-64-28.704-64-64-64z m0 96c-17.632 0-32-14.368-32-32s14.368-32 32-32 32 14.368 32 32-14.368 32-32 32zM320 352c35.296 0 64-28.704 64-64s-28.704-64-64-64-64 28.704-64 64 28.704 64 64 64z m0-96c17.632 0 32 14.368 32 32s-14.368 32-32 32-32-14.368-32-32 14.368-32 32-32zM320 448c0-35.296-28.704-64-64-64s-64 28.704-64 64 28.704 64 64 64 64-28.704 64-64z m-96 0c0-17.632 14.368-32 32-32s32 14.368 32 32-14.368 32-32 32-32-14.368-32-32zM288 544c-35.296 0-64 28.704-64 64s28.704 64 64 64 64-28.704 64-64-28.704-64-64-64z m0 96c-17.632 0-32-14.368-32-32s14.368-32 32-32 32 14.368 32 32-14.368 32-32 32zM416 672c-35.296 0-64 28.704-64 64s28.704 64 64 64 64-28.704 64-64-28.704-64-64-64z m0 96c-17.632 0-32-14.368-32-32s14.368-32 32-32 32 14.368 32 32-14.368 32-32 32z" fill="#5465CF" p-id="1147"></path></svg>